<?xml version="1.0" encoding="UTF-8"?>
<svg xmlns="http://www.w3.org/2000/svg" xmlns:xlink="http://www.w3.org/1999/xlink" width="160.6pt" height="116.9pt" viewBox="0 0 160.6 116.9" version="1.1">
<defs>
<clipPath id="clip1">
  <path d="M 61 81 L 72 81 L 72 116.898438 L 61 116.898438 Z M 61 81 "/>
</clipPath>
<clipPath id="clip2">
  <path d="M 0 81 L 55 81 L 55 116.898438 L 0 116.898438 Z M 0 81 "/>
</clipPath>
<clipPath id="clip3">
  <path d="M 82 74 L 94 74 L 94 116.898438 L 82 116.898438 Z M 82 74 "/>
</clipPath>
<clipPath id="clip4">
  <path d="M 103 62 L 115 62 L 115 116.898438 L 103 116.898438 Z M 103 62 "/>
</clipPath>
<clipPath id="clip5">
  <path d="M 126 6 L 160.601563 6 L 160.601563 116.898438 L 126 116.898438 Z M 126 6 "/>
</clipPath>
</defs>
<g id="surface1">
<path style=" stroke:none;fill-rule:evenodd;fill:rgb(48.631287%,63.867188%,82.421875%);fill-opacity:1;" d="M 60.714844 73.273438 C 60.714844 76.453125 63.242188 78.980469 66.417969 78.980469 C 69.597656 78.980469 72.125 76.453125 72.125 73.273438 C 72.125 70.09375 69.597656 67.566406 66.417969 67.566406 C 63.242188 67.566406 60.714844 70.09375 60.714844 73.273438 Z M 60.714844 73.273438 "/>
<g clip-path="url(#clip1)" clip-rule="nonzero">
<path style=" stroke:none;fill-rule:evenodd;fill:rgb(48.631287%,63.867188%,82.421875%);fill-opacity:1;" d="M 61.578125 100.777344 C 61.578125 106.628906 61.433594 111.753906 61 116.820313 C 62.300781 116.675781 64.179688 116.460938 66.417969 116.460938 C 68.65625 116.460938 70.609375 116.675781 71.835938 116.820313 C 71.402344 111.753906 71.257813 106.628906 71.257813 100.777344 L 71.257813 97.886719 C 71.257813 92.035156 71.402344 86.910156 71.835938 81.851563 C 70.609375 81.996094 68.65625 82.214844 66.417969 82.214844 C 64.179688 82.214844 62.300781 81.996094 61 81.851563 C 61.433594 86.910156 61.578125 92.035156 61.578125 97.886719 Z M 61.578125 100.777344 "/>
</g>
<g clip-path="url(#clip2)" clip-rule="nonzero">
<path style=" stroke:none;fill-rule:evenodd;fill:rgb(48.631287%,63.867188%,82.421875%);fill-opacity:1;" d="M 41.328125 106.84375 C 38.730469 98.535156 36.34375 90.160156 34.035156 81.851563 C 32.660156 81.996094 31.363281 82.214844 29.988281 82.214844 C 28.617188 82.214844 27.316406 81.996094 25.945313 81.851563 C 23.632813 90.160156 21.394531 98.535156 18.652344 106.84375 L 18.507813 106.84375 C 16.339844 99.546875 13.667969 90.160156 11.355469 81.851563 C 9.621094 81.996094 7.816406 82.214844 6.082031 82.214844 C 4.277344 82.214844 2.542969 81.996094 0.449219 81.851563 C 1.679688 84.8125 8.46875 105.328125 11.644531 116.820313 C 13.089844 116.675781 14.535156 116.460938 15.90625 116.460938 C 17.277344 116.460938 18.652344 116.675781 20.023438 116.820313 C 22.261719 108.863281 24.71875 100.992188 27.246094 93.046875 L 27.390625 93.046875 C 29.410156 99.839844 32.230469 108.863281 34.46875 116.820313 C 35.839844 116.675781 37.140625 116.460938 38.511719 116.460938 C 39.8125 116.460938 41.183594 116.675781 42.484375 116.820313 C 45.953125 105.46875 52.523438 85.535156 54.617188 81.851563 C 53.390625 81.996094 52.523438 82.214844 51.585938 82.214844 C 50.644531 82.214844 49.707031 81.996094 48.769531 81.851563 C 46.601563 90.160156 44.144531 98.464844 41.472656 106.84375 Z M 41.328125 106.84375 "/>
</g>
<g clip-path="url(#clip3)" clip-rule="nonzero">
<path style=" stroke:none;fill-rule:evenodd;fill:rgb(48.631287%,63.867188%,82.421875%);fill-opacity:1;" d="M 82.914063 97.019531 C 82.914063 104.515625 82.699219 110.347656 82.335938 116.820313 C 83.566406 116.648438 85.660156 116.539063 87.753906 116.539063 C 89.847656 116.539063 91.945313 116.648438 93.171875 116.820313 C 92.808594 110.347656 92.59375 104.515625 92.59375 97.019531 L 92.59375 93.304688 C 92.59375 86.042969 92.796875 80.859375 93.136719 74.632813 C 89.867188 77.328125 86.355469 78.652344 82.640625 79.652344 C 82.816406 83.914063 82.914063 88.230469 82.914063 93.304688 Z M 82.914063 97.019531 "/>
</g>
<g clip-path="url(#clip4)" clip-rule="nonzero">
<path style=" stroke:none;fill-rule:evenodd;fill:rgb(48.631287%,63.867188%,82.421875%);fill-opacity:1;" d="M 104.03125 96.714844 C 104.03125 104.320313 103.8125 110.25 103.453125 116.820313 C 104.679688 116.648438 106.773438 116.53125 108.867188 116.53125 C 110.964844 116.53125 113.058594 116.648438 114.285156 116.820313 C 113.925781 110.25 113.707031 104.320313 113.707031 96.714844 L 113.707031 92.933594 C 113.707031 85.558594 113.910156 68.589844 114.253906 62.257813 C 111.210938 64.703125 107.765625 67.679688 103.753906 68.867188 C 103.929688 73.203125 104.03125 87.78125 104.03125 92.933594 Z M 104.03125 96.714844 "/>
</g>
<path style=" stroke:none;fill-rule:evenodd;fill:rgb(48.631287%,63.867188%,82.421875%);fill-opacity:1;" d="M 119.046875 16.628906 C 112.285156 36.898438 93.542969 53.113281 70.03125 61.921875 C 62.851563 64.609375 55.566406 66.484375 48.386719 67.488281 C 50.816406 62.191406 55.421875 52.214844 62.316406 45.328125 C 77.195313 30.476563 94.210938 23.589844 114.714844 17.832031 C 115.972656 17.472656 117.457031 17.066406 119.046875 16.628906 Z M 46.585938 67.722656 C 41.6875 68.308594 36.839844 68.484375 32.117188 68.234375 C 35.070313 61.050781 37.148438 50.503906 40.582031 43.355469 C 45.792969 48.167969 47.960938 58.140625 46.96875 64.976563 C 46.8125 66.042969 46.6875 66.957031 46.585938 67.722656 Z M 22.261719 67.042969 C 14.210938 65.492188 6.699219 62.542969 0.09375 58.085938 C 1.40625 53.105469 3.417969 48.355469 6.027344 43.878906 C 11.761719 51.628906 17.585938 59.277344 22.261719 67.042969 Z M 12.394531 34.847656 C 21.65625 23.773438 34.886719 14.921875 50.265625 9.160156 C 74.828125 -0.0390625 100.625 0.277344 119.257813 12.570313 C 98.8125 13.507813 79.949219 13.066406 63.679688 30.980469 C 56.019531 39.410156 53.144531 46.4375 49.980469 56.289063 C 50.589844 44.894531 49.542969 33.394531 41.699219 26.457031 C 41.460938 26.242188 32.570313 33.984375 28.882813 33.554688 C 31.058594 35.109375 38.871094 41.847656 38.808594 41.863281 L 26.699219 56.882813 Z M 12.394531 34.847656 "/>
<g clip-path="url(#clip5)" clip-rule="nonzero">
<path style=" stroke:none;fill-rule:evenodd;fill:rgb(48.631287%,63.867188%,82.421875%);fill-opacity:1;" d="M 151.503906 116.59375 C 152.5625 116.59375 153.019531 116.367188 153.019531 115.539063 L 153.019531 106.136719 C 153.019531 99.46875 148.8125 95.644531 142.296875 95.644531 C 133.203125 95.644531 126.726563 103.105469 126.726563 113.183594 C 126.726563 115.417969 127.144531 116.59375 128.46875 116.59375 Z M 129.984375 113.261719 C 129.984375 104.925781 135.25 99.207031 142.296875 99.207031 C 148.28125 99.207031 149.910156 102.203125 149.910156 107.125 L 149.910156 113.261719 Z M 141.046875 88.785156 C 138.621094 88.292969 136.425781 86.550781 136.425781 82.914063 C 136.425781 79.84375 138.394531 77.914063 141.046875 77.761719 Z M 143.621094 76.285156 C 143.621094 74.464844 143.207031 74.429688 141.613281 74.429688 C 136.839844 74.429688 133.546875 78.179688 133.546875 82.878906 C 133.546875 88.519531 137.410156 92.503906 143.09375 92.503906 C 149.761719 92.503906 153.019531 88.292969 153.019531 83.292969 L 153.019531 76.019531 C 153.019531 74.996094 152.5625 74.3125 151.578125 74.3125 C 150.59375 74.3125 150.140625 74.996094 150.140625 76.019531 L 150.140625 83.21875 C 150.140625 86.328125 148.015625 89.207031 143.621094 88.9375 Z M 133.773438 66.359375 C 133.773438 69.203125 135.363281 71.433594 138.355469 71.433594 C 140.363281 71.433594 141.84375 69.960938 142.335938 66.925781 L 143.320313 60.941406 C 143.660156 58.855469 144.835938 58.289063 146.386719 58.289063 C 148.054688 58.289063 149.910156 59.273438 149.910156 62.304688 L 149.910156 70.070313 C 149.910156 71.171875 150.402344 71.890625 151.464844 71.890625 C 152.527344 71.890625 153.019531 71.171875 153.019531 70.070313 L 153.019531 62.082031 C 153.019531 57.871094 150.480469 55.183594 146.125 55.183594 C 143.320313 55.183594 141.085938 56.355469 140.515625 59.464844 L 139.457031 65.378906 C 139.226563 66.703125 139.191406 68.101563 137.941406 68.101563 C 136.917969 68.101563 136.878906 67.230469 136.878906 66.398438 L 136.878906 58.628906 C 136.878906 57.570313 136.386719 56.8125 135.324219 56.8125 C 134.265625 56.8125 133.773438 57.570313 133.773438 58.628906 Z M 135.628906 48.175781 C 134.492188 48.175781 133.660156 48.589844 133.660156 49.839844 C 133.660156 51.089844 134.492188 51.507813 135.628906 51.507813 L 151.160156 51.507813 C 152.296875 51.507813 153.136719 51.089844 153.136719 49.839844 C 153.136719 48.589844 152.296875 48.175781 151.160156 48.175781 Z M 127.179688 49.839844 C 127.179688 51.054688 128.242188 51.621094 129.378906 51.621094 C 130.515625 51.621094 131.574219 51.054688 131.574219 49.839844 C 131.574219 48.628906 130.515625 48.058594 129.378906 48.058594 C 128.242188 48.058594 127.179688 48.628906 127.179688 49.839844 Z M 136.878906 27.601563 C 136.273438 27.601563 136.574219 25.746094 135.289063 25.746094 C 133.621094 25.746094 133.546875 26.164063 133.546875 31.695313 C 133.546875 37.984375 136.652344 44.273438 144.53125 44.273438 C 149.875 44.273438 152.753906 40.484375 152.753906 34.496094 C 152.753906 32.835938 152.527344 31.011719 152.527344 29.761719 C 152.527344 28.589844 153.136719 27.753906 154.3125 27.753906 C 156.546875 27.753906 157.796875 31.011719 157.796875 34.839844 C 157.796875 38.664063 156.207031 42.226563 156.207031 43.363281 C 156.207031 44.085938 156.738281 44.613281 157.496094 44.613281 C 160.222656 44.613281 160.675781 36.964844 160.675781 35.558594 C 160.675781 31.730469 159.3125 24.648438 154.238281 24.648438 C 152.488281 24.648438 151.503906 25.367188 150.78125 26.128906 C 150.0625 26.84375 149.609375 27.601563 148.925781 27.601563 Z M 149.875 30.9375 L 149.875 34.195313 C 149.875 38.058594 148.964844 40.9375 144.304688 40.9375 C 138.8125 40.9375 136.425781 36.390625 136.425781 32.488281 L 136.425781 30.9375 Z M 151.160156 22.070313 C 152.296875 22.070313 153.136719 21.65625 153.136719 20.402344 C 153.136719 19.152344 152.296875 18.738281 151.160156 18.738281 L 142.03125 18.738281 C 139 18.738281 136.652344 16.578125 136.652344 13.660156 C 136.652344 10.441406 138.621094 9.339844 141.992188 9.339844 L 151.160156 9.339844 C 152.296875 9.339844 153.136719 8.925781 153.136719 7.675781 C 153.136719 6.425781 152.296875 6.007813 151.160156 6.007813 L 140.628906 6.007813 C 136.5 6.007813 133.546875 8.621094 133.546875 13.09375 C 133.546875 15.515625 134.378906 17.753906 136.691406 19.039063 L 136.613281 19.117188 L 135.289063 19.117188 C 134.378906 19.117188 133.773438 19.683594 133.773438 20.59375 C 133.773438 21.503906 134.378906 22.070313 135.289063 22.070313 Z M 151.160156 22.070313 "/>
</g>
</g>
</svg>
